<?xml version="1.0" encoding="UTF-8"?>
<svg id="Layer_1" data-name="Layer 1" xmlns="http://www.w3.org/2000/svg" viewBox="0 0 386.82 385.77">
  <defs>
    <style>
      .cls-1 {
        fill: #fff;
      }

      .cls-2 {
        fill: #1d71b8;
      }
    </style>
  </defs>
  <rect class="cls-2" x=".52" width="385.77" height="385.77" rx="51.96" ry="51.96"/>
  <g>
    <path class="cls-1" d="m338.96,170.2c-41.24-41.25-82.55-82.46-123.86-123.63-12.37-12.33-30.89-12.28-43.28.04-15.69,15.6-31.33,31.28-46.98,46.93-11.76,11.77-23.54,23.53-35.23,35.37-4.92,4.98-6.16,11.05-2.22,15.19,7.75,8.16,16.06,15.77,24.11,23.53,1.78-4.29,4.33-8.64,7.6-12.76,1.76-2.21,3.62-4.23,5.57-6.03.1-.17.22-.35.33-.53-4.03-3.09-8.37-6.41-12.89-9.86,1.98-2.21,2.92-3.4,4-4.47,23.18-23.17,46.36-46.33,69.56-69.47,5.99-5.98,9.61-5.96,15.64.09,39.15,39.23,78.3,78.46,117.42,117.71,10.46,10.49,10.4,10.82.05,21.14-5.28,5.26-10.45,10.64-15.14,15.42,5.56,5.69,10.55,10.8,16.59,16.99,6.07-6.46,12.1-13.23,18.51-19.64,14.02-14.05,14.29-31.98.24-46.03Z"/>
    <path class="cls-1" d="m283.46,225c-2.73-2.73-5.5-5.42-8.13-7.99-1.24,3.47-2.96,6.99-5.15,10.43-.61.96-1.26,1.92-1.95,2.86-1.76,2.43-3.66,4.65-5.64,6.63,3.86,3.2,7.98,6.63,12.3,10.23-1.92,2.16-2.86,3.35-3.93,4.42-23.42,23.43-46.85,46.85-70.29,70.24-5.67,5.66-8.9,5.58-14.73-.26-40.38-40.45-80.76-80.9-121.13-121.36-5.84-5.85-5.83-8.91.04-14.6,6.37-6.18,12.78-12.33,19.17-18.5-5.91-5.89-11.08-11.04-16.52-16.46-6.49,6.45-13.08,12.9-19.57,19.46-14.21,14.39-13.91,32.1.4,46.32,40.55,40.28,81.04,80.62,121.48,121.01,14.61,14.59,32.54,14.66,47.1.02,9.56-9.63,19.2-19.15,28.79-28.74,16.88-16.86,33.77-33.71,50.63-50.59,7.11-7.13,7.13-12.89.18-19.97-4.33-4.42-8.68-8.79-13.06-13.16Z"/>
    <path class="cls-1" d="m243.94,193.76c-.19-3.75-.59-8.51-2.87-10.96-10.52-11.29-21.34-22.37-32.8-32.7-15.29-13.78-36.76-17.42-55.3-11.38-7.79,2.53-15.05,6.78-21.12,12.69-12.54,12.21-18.62,27.84-18.07,43.37.45,13.6,6,27.14,16.7,38.21,14.55,15.05,29.61,29.6,44.27,44.54,1.73,1.76,3,4.47,3.42,6.92,1.53,8.99,9.56,15.96,18.39,15.48,9.26-.5,16.5-7.8,16.84-16.96.35-9.39-5.93-16.64-15.37-18.2-2.19-.36-4.66-1.38-6.22-2.91-15.16-14.92-30.3-29.87-45.15-45.12-6.29-6.45-9.58-14.44-9.9-22.48-.37-9.01,2.98-18.09,9.94-25.18,4.47-4.54,9.81-7.59,15.48-9.08,10.92-2.9,23-.1,32.16,8.59,10.33,9.79,20.29,19.99,30.33,30.08,3.17,3.18,6.21,6.49,9.4,9.93.93,1,1.86,2,2.82,3.02,4.52-5.43,6.99-10.66,7.07-16.45.01-.46,0-.93-.02-1.4Zm-47.79,83.62c4.23-.42,7.76,3.11,7.34,7.34-.31,3.13-2.84,5.67-5.98,5.98-4.23.42-7.76-3.11-7.34-7.34.31-3.13,2.84-5.67,5.98-5.98Z"/>
    <path class="cls-1" d="m255.46,151.75c-14.27-14.59-28.96-28.79-43.29-43.33-1.75-1.77-3.03-4.48-3.53-6.96-1.98-9.78-9.39-16.01-18.82-15.32-9.09.66-16.09,7.7-16.59,16.7-.5,8.97,6.38,16.69,16.14,18.29,1.59.26,3.48.67,4.53,1.72,16.06,15.96,32.18,31.87,47.89,48.18,5.4,5.61,8.13,12.52,8.31,20,.05,1.87-.05,3.78-.32,5.72-1.85,13.46-9.04,23.38-21.99,28.02-.87.31-1.72.59-2.57.82-12.46,3.62-23.91.69-33.45-8.86-12.41-12.4-24.57-25.02-37.61-38.4-1.48-1.53-2.99-3.08-4.51-4.63-2.37,4.39-4.38,7.04-5.28,10.03-.67,2.17-1.29,4.42-1.64,6.65-.73,4.57-.31,9.09,3.23,12.85,10.44,11.12,21.23,21.97,32.47,32.28,13.51,12.41,29.98,16.63,47.8,13.27,2.35-.44,4.6-.98,6.79-1.64,18.6-5.49,31.31-18.36,37.27-37.69,1.93-6.24,2.85-12.29,2.8-18.12-.08-14.64-6.22-27.93-17.62-39.59Zm-64.64-42.3c-4.23.42-7.76-3.11-7.34-7.34.31-3.13,2.84-5.67,5.98-5.98,4.23-.42,7.76,3.11,7.34,7.34-.31,3.13-2.84,5.67-5.98,5.98Z"/>
  </g>
</svg>