<?xml version="1.0" encoding="UTF-8"?>
<svg id="Layer_1" data-name="Layer 1" xmlns="http://www.w3.org/2000/svg" viewBox="0 0 1830.14 389.24">
  <defs>
    <style>
      .cls-1, .cls-2, .cls-3 {
        fill: #fff;
      }

      .cls-2 {
        font-family: SimplifiedArabic, 'Simplified Arabic';
        font-size: 136.77px;
      }

      .cls-4 {
        letter-spacing: 0em;
      }

      .cls-3 {
        font-family: MicrosoftYaHeiUI-Bold, 'Microsoft YaHei UI';
        font-size: 204.14px;
        font-weight: 700;
      }
    </style>
  </defs>
  <g>
    <path class="cls-1" d="m373.92,166.48c-51.15-51.16-102.37-102.26-153.61-153.32-15.34-15.29-38.31-15.22-53.68.05-19.46,19.35-38.85,38.79-58.26,58.2-14.58,14.6-29.19,29.18-43.69,43.87-6.1,6.18-7.64,13.7-2.76,18.84,9.62,10.11,19.92,19.55,29.9,29.18,2.21-5.33,5.36-10.71,9.43-15.82,2.18-2.75,4.5-5.25,6.91-7.48.13-.22.27-.43.41-.65-4.99-3.83-10.38-7.94-15.99-12.22,2.45-2.75,3.63-4.21,4.96-5.54,28.75-28.74,57.5-57.46,86.27-86.15,7.43-7.42,11.92-7.39,19.4.11,48.56,48.65,97.1,97.3,145.62,145.97,12.98,13.01,12.9,13.42.06,26.22-6.55,6.53-12.96,13.19-18.77,19.12,6.9,7.06,13.08,13.4,20.57,21.07,7.52-8.01,15.01-16.41,22.95-24.35,17.38-17.42,17.73-39.65.29-57.09Z"/>
    <path class="cls-1" d="m305.1,234.45c-3.38-3.38-6.82-6.72-10.08-9.91-1.53,4.3-3.67,8.67-6.39,12.94-.75,1.19-1.56,2.38-2.41,3.55-2.18,3.01-4.53,5.77-7,8.22,4.79,3.97,9.9,8.22,15.25,12.68-2.38,2.68-3.55,4.15-4.88,5.48-29.04,29.05-58.1,58.1-87.18,87.11-7.04,7.02-11.03,6.92-18.26-.32-50.08-50.17-100.15-100.33-150.21-150.51-7.24-7.25-7.23-11.05.05-18.11,7.91-7.66,15.85-15.29,23.78-22.94-7.33-7.31-13.74-13.69-20.48-20.41-8.05,7.99-16.22,16-24.27,24.14-17.62,17.84-17.25,39.81.5,57.44,50.29,49.95,100.5,99.99,150.65,150.07,18.12,18.1,40.36,18.19,58.42.03,11.85-11.94,23.81-23.75,35.71-35.64,20.93-20.91,41.88-41.8,62.78-62.74,8.81-8.84,8.84-15.99.22-24.76-5.36-5.48-10.77-10.91-16.19-16.32Z"/>
    <path class="cls-1" d="m256.08,195.7c-.23-4.65-.73-10.55-3.56-13.59-13.05-14-26.46-27.74-40.68-40.55-18.97-17.09-45.59-21.61-68.58-14.11-9.65,3.14-18.66,8.4-26.19,15.73-15.56,15.15-23.09,34.52-22.41,53.78.56,16.87,7.45,33.65,20.71,47.38,18.05,18.66,36.72,36.7,54.9,55.24,2.15,2.18,3.72,5.54,4.24,8.58,1.9,11.15,11.85,19.8,22.81,19.19,11.48-.63,20.46-9.67,20.88-21.03.43-11.65-7.36-20.64-19.07-22.57-2.72-.45-5.79-1.71-7.71-3.61-18.8-18.51-37.57-37.05-55.99-55.95-7.8-7.99-11.88-17.91-12.27-27.88-.46-11.17,3.69-22.44,12.32-31.23,5.54-5.63,12.17-9.41,19.2-11.26,13.54-3.6,28.52-.13,39.88,10.65,12.81,12.15,25.16,24.79,37.61,37.3,3.93,3.95,7.7,8.05,11.66,12.31,1.15,1.24,2.31,2.48,3.5,3.74,5.61-6.73,8.67-13.22,8.77-20.4.01-.57,0-1.15-.03-1.74Zm-59.26,103.71c5.25-.52,9.63,3.86,9.11,9.11-.38,3.89-3.53,7.03-7.41,7.41-5.25.52-9.63-3.86-9.11-9.11.38-3.89,3.53-7.03,7.41-7.41Z"/>
    <path class="cls-1" d="m270.37,143.61c-17.7-18.1-35.91-35.71-53.69-53.74-2.17-2.2-3.75-5.56-4.38-8.63-2.45-12.13-11.65-19.86-23.35-19-11.28.82-19.95,9.55-20.57,20.71-.63,11.12,7.92,20.7,20.01,22.68,1.97.32,4.32.83,5.62,2.13,19.92,19.8,39.91,39.53,59.39,59.76,6.69,6.96,10.08,15.53,10.31,24.8.06,2.32-.06,4.69-.4,7.09-2.3,16.69-11.21,28.99-27.27,34.75-1.07.38-2.13.73-3.19,1.02-15.45,4.5-29.65.86-41.48-10.98-15.39-15.38-30.47-31.03-46.64-47.62-1.84-1.9-3.7-3.82-5.59-5.75-2.94,5.44-5.43,8.74-6.55,12.44-.83,2.69-1.6,5.48-2.03,8.25-.91,5.67-.38,11.28,4.01,15.94,12.95,13.79,26.33,27.24,40.27,40.04,16.76,15.39,37.18,20.63,59.28,16.46,2.91-.55,5.71-1.21,8.42-2.03,23.06-6.81,38.82-22.77,46.22-46.74,2.39-7.74,3.54-15.24,3.47-22.48-.1-18.16-7.71-34.64-21.85-49.09Zm-80.16-52.45c-5.25.52-9.63-3.86-9.11-9.11.38-3.89,3.53-7.03,7.41-7.41,5.25-.52,9.63,3.86,9.11,9.11-.38,3.89-3.53,7.03-7.41,7.41Z"/>
  </g>
  <g>
    <text class="cls-3" transform="translate(580.56 175.64)"><tspan x="0" y="0">P</tspan><tspan class="cls-4" x="134.17" y="0">r</tspan><tspan x="219.69" y="0">o Gineous</tspan></text>
    <text class="cls-2" transform="translate(590.27 323.86)"><tspan x="0" y="0">Unlocking Potential</tspan></text>
  </g>
</svg>