<svg id="Layer_1" data-name="Layer 1" xmlns="http://www.w3.org/2000/svg" viewBox="0 0 1830.14 389.24"><defs><style>.cls-1,.cls-2,.cls-4{fill:#fff;}.cls-2{font-size:204.14px;font-family:MicrosoftYaHeiUI-Bold, Microsoft YaHei UI;font-weight:700;}.cls-3{letter-spacing:0em;}.cls-4{font-size:136.77px;font-family:SimplifiedArabic, Simplified Arabic;}</style></defs><path class="cls-1" d="M373.92,166.48Q297.19,89.74,220.31,13.17C205-2.12,182-2.06,166.63,13.22q-29.19,29-58.26,58.2Q86.49,93.31,64.68,115.28C58.57,121.47,57,129,61.92,134.12c9.62,10.12,19.92,19.55,29.9,29.18A68.65,68.65,0,0,1,108.15,140c.13-.22.27-.44.41-.65-5-3.84-10.38-7.95-16-12.23,2.45-2.74,3.63-4.21,5-5.54q43.11-43.1,86.27-86.15c7.43-7.42,11.91-7.4,19.39.11q72.84,73,145.62,146c13,13,12.9,13.42.07,26.22-6.56,6.52-13,13.19-18.78,19.11l20.58,21.08c7.52-8,15-16.41,22.95-24.36C391,206.15,391.35,183.92,373.92,166.48Z"/><path class="cls-1" d="M305.1,234.45c-3.39-3.38-6.82-6.72-10.08-9.91a64.17,64.17,0,0,1-6.39,12.94c-.75,1.19-1.55,2.37-2.41,3.55a66.64,66.64,0,0,1-7,8.22l15.25,12.69c-2.38,2.68-3.55,4.15-4.88,5.47Q246,311,202.42,354.53c-7,7-11,6.92-18.27-.32Q109,279,33.94,203.7c-7.24-7.25-7.23-11,.05-18.11q11.85-11.49,23.78-22.94L37.28,142.24c-8,8-16.22,16-24.26,24.14-17.63,17.84-17.25,39.81.5,57.45Q89,298.74,164.17,373.9c18.12,18.1,40.35,18.19,58.41,0,11.85-11.94,23.81-23.76,35.71-35.65q31.4-31.35,62.78-62.74c8.81-8.84,8.84-16,.22-24.77Q313.25,242.57,305.1,234.45Z"/><path class="cls-1" d="M256.08,195.7c-.23-4.64-.73-10.54-3.56-13.58-13.06-14-26.47-27.74-40.68-40.55-19-17.09-45.59-21.61-68.58-14.11a67.23,67.23,0,0,0-26.19,15.73C101.51,158.34,94,177.71,94.65,197c.56,16.87,7.45,33.65,20.72,47.38,18,18.66,36.71,36.7,54.9,55.24a16.92,16.92,0,0,1,4.24,8.58c1.9,11.15,11.85,19.79,22.81,19.19a21.88,21.88,0,0,0,20.88-21c.43-11.65-7.36-20.64-19.07-22.57a15,15,0,0,1-7.71-3.61c-18.8-18.51-37.57-37-56-55.95a42.31,42.31,0,0,1,19.25-70.37c13.53-3.6,28.51-.13,39.88,10.65,12.81,12.14,25.16,24.79,37.61,37.3,3.94,3.95,7.7,8.05,11.66,12.32l3.5,3.74c5.61-6.73,8.67-13.22,8.78-20.4Q256.13,196.59,256.08,195.7ZM196.82,299.41a8.3,8.3,0,1,1-7.41,7.41A8.3,8.3,0,0,1,196.82,299.41Z"/><path class="cls-1" d="M270.37,143.61c-17.7-18.1-35.91-35.71-53.69-53.74a18,18,0,0,1-4.38-8.63c-2.45-12.14-11.65-19.86-23.35-19A21.93,21.93,0,0,0,168.38,83c-.63,11.12,7.92,20.7,20,22.68,2,.32,4.32.83,5.62,2.13,19.92,19.8,39.91,39.53,59.39,59.76a36.36,36.36,0,0,1,10.3,24.8,42.62,42.62,0,0,1-.39,7.09c-2.3,16.69-11.21,29-27.27,34.75-1.07.38-2.13.73-3.19,1-15.45,4.5-29.66.86-41.48-11-15.39-15.38-30.47-31-46.64-47.63-1.84-1.9-3.71-3.82-5.6-5.74-2.93,5.44-5.42,8.73-6.55,12.44a60.2,60.2,0,0,0-2,8.25c-.9,5.67-.38,11.27,4,15.93,12.95,13.8,26.34,27.25,40.27,40C191.59,262.88,212,268.12,234.11,264a80.27,80.27,0,0,0,8.42-2c23.06-6.8,38.82-22.77,46.22-46.74a73.62,73.62,0,0,0,3.47-22.48C292.12,174.54,284.51,158.07,270.37,143.61ZM190.21,91.16a8.3,8.3,0,1,1,7.41-7.42A8.31,8.31,0,0,1,190.21,91.16Z"/><text class="cls-2" transform="translate(580.56 175.64)">P<tspan class="cls-3" x="134.17" y="0">r</tspan><tspan x="219.69" y="0">o Gineous</tspan></text><text class="cls-4" transform="translate(590.27 323.86)">Unlocking Potential</text></svg>